<?xml version="1.0" encoding="UTF-8"?>
<svg version="1.1" xmlns="http://www.w3.org/2000/svg" width="32" height="32">
<path d="M0 0 C10.56 0 21.12 0 32 0 C32 10.56 32 21.12 32 32 C21.44 32 10.88 32 0 32 C0 21.44 0 10.88 0 0 Z " fill="#050000" transform="translate(0,0)"/>
<path d="M0 0 C4.95 0 9.9 0 15 0 C15 0.99 15 1.98 15 3 C15.66 3 16.32 3 17 3 C17 5.31 17 7.62 17 10 C16.34 10 15.68 10 15 10 C15 11.65 15 13.3 15 15 C15.66 15 16.32 15 17 15 C17 18.3 17 21.6 17 25 C15.68 25 14.36 25 13 25 C13 21.7 13 18.4 13 15 C12.01 15 11.02 15 10 15 C10 14.34 10 13.68 10 13 C9.34 13 8.68 13 8 13 C8 16.96 8 20.92 8 25 C5.36 25 2.72 25 0 25 C0 24.01 0 23.02 0 22 C0.66 22 1.32 22 2 22 C2 15.73 2 9.46 2 3 C1.34 3 0.68 3 0 3 C0 2.01 0 1.02 0 0 Z " fill="#E52828" transform="translate(6,3)"/>
<path d="M0 0 C1.32 0 2.64 0 4 0 C4 2.31 4 4.62 4 7 C2.68 7 1.36 7 0 7 C0 4.69 0 2.38 0 0 Z " fill="#000000" transform="translate(14,6)"/>
</svg>
